<?xml version="1.0" encoding="UTF-8" standalone="no"?>
<!-- Created with Inkscape (http://www.inkscape.org/) -->

<svg
   xmlns:dc="http://purl.org/dc/elements/1.1/"
   xmlns:cc="http://creativecommons.org/ns#"
   xmlns:rdf="http://www.w3.org/1999/02/22-rdf-syntax-ns#"
   xmlns:svg="http://www.w3.org/2000/svg"
   xmlns="http://www.w3.org/2000/svg"
   version="1.2"
   width="88mm"
   height="17mm"
   id="svg3011">
  <defs
     id="defs3" />
  <metadata
     id="metadata3015">
    <rdf:RDF>
      <cc:Work
         rdf:about="">
        <dc:format>image/svg+xml</dc:format>
        <dc:type
           rdf:resource="http://purl.org/dc/dcmitype/StillImage" />
        <dc:title></dc:title>
      </cc:Work>
    </rdf:RDF>
  </metadata>
  <flowRoot
     id="flowRoot3765"
     xml:space="preserve"
     style="font-size:40px;font-style:normal;font-variant:normal;font-weight:normal;font-stretch:normal;line-height:125%;letter-spacing:0px;word-spacing:0px;fill:#f65e3b;fill-opacity:1;stroke:none;font-family:Clear Sans;-inkscape-font-specification:Clear Sans"><flowRegion
       id="flowRegion3767"><rect
         width="134.91136"
         height="53.193619"
         x="179.62483"
         y="4.7298355"
         id="rect3769"
         style="fill:#f65e3b;fill-opacity:1" /></flowRegion><flowPara
       id="flowPara3771"
       style="font-size:72px;fill:#f65e3b;fill-opacity:1">Hell</flowPara></flowRoot>  <text
     x="36.233334"
     y="43.275936"
     id="text3795"
     xml:space="preserve"
     style="font-size:72px;font-style:normal;font-variant:normal;font-weight:normal;font-stretch:normal;line-height:125%;letter-spacing:0px;word-spacing:0px;fill:#f65e3b;fill-opacity:1;stroke:none;font-family:Clear Sans;-inkscape-font-specification:Clear Sans"><tspan
       x="36.233334"
       y="43.275936"
       id="tspan3797"
       style="font-weight:bold;fill:#f65e3b;fill-opacity:1" /></text>
  <g
     id="text3799"
     style="font-size:72px;font-style:normal;font-variant:normal;font-weight:normal;font-stretch:normal;line-height:125%;letter-spacing:0px;word-spacing:0px;fill:#f65e3b;fill-opacity:1;stroke:none;font-family:Clear Sans;-inkscape-font-specification:Clear Sans">
    <path
       d="m 214.37552,55.996151 0,-21.818848 -20.1687,0 0,21.818848 -7.92334,0 0,-49.1132813 7.92334,0 0,20.0961913 20.1687,0 0,-20.0961913 7.92554,0 0,49.1132813 z"
       id="path3821"
       style="font-weight:bold;fill:#f65e3b" />
    <path
       d="m 239.81985,38.622372 c -1e-5,4.167493 0.75036,7.1869 2.2511,9.058227 1.50072,1.871345 3.9276,2.807013 7.28064,2.807007 1.47068,6e-6 2.75572,-0.306146 3.85511,-0.918457 1.09933,-0.612298 2.32797,-1.742423 3.68591,-3.390381 l 5.88428,3.539795 c -1.51762,2.538578 -3.32267,4.397463 -5.41517,5.57666 -2.09255,1.179199 -4.90029,1.768798 -8.42321,1.768799 -5.63527,-1e-6 -9.8445,-1.638793 -12.62769,-4.916382 -2.78321,-3.277581 -4.17481,-8.158069 -4.1748,-14.641479 -1e-5,-6.773413 1.3568,-11.818329 4.07043,-15.134766 2.71361,-3.316369 6.80821,-4.974571 12.28381,-4.974609 4.92771,3.8e-5 8.63267,1.429358 11.11487,4.287964 2.48215,2.858674 3.72323,7.167141 3.72327,12.925415 l 0,4.012207 z m 16.16968,-6.057862 c -0.0425,-2.620579 -0.6658,-4.747896 -1.86987,-6.381958 -1.20413,-1.634001 -3.14944,-2.451017 -5.83594,-2.451049 -2.57375,3.2e-5 -4.50734,0.741242 -5.80078,2.223632 -1.29347,1.482451 -2.15846,3.685574 -2.59497,6.609375 z"
       id="path3823"
       style="font-weight:bold;fill:#f65e3b" />
    <path
       d="m 272.34818,55.996151 0,-52.7321778 7.47729,0 0,52.7321778 z"
       id="path3825"
       style="font-weight:bold;fill:#f65e3b" />
    <path
       d="m 291.0513,55.996151 0,-52.7321778 7.47729,0 0,52.7321778 z"
       id="path3827"
       style="font-weight:bold;fill:#f65e3b" />
  </g>
  <g
     id="text3807"
     style="font-size:72px;font-style:normal;font-variant:normal;font-weight:normal;font-stretch:normal;line-height:125%;letter-spacing:0px;word-spacing:0px;fill:#776e65;fill-opacity:1;stroke:none;font-family:Clear Sans;-inkscape-font-specification:Clear Sans">
    <path
       d="m 12.501457,54.839767 0,-7.725585 c 5.724599,-4.860339 9.867173,-8.507064 12.427735,-10.940186 2.560527,-2.433084 4.640969,-4.554908 6.241333,-6.365479 1.600316,-1.81052 2.841404,-3.580415 3.723266,-5.309692 0.881808,-1.729216 1.322726,-3.592862 1.322754,-5.590942 -2.8e-5,-2.160607 -0.709378,-3.887656 -2.128052,-5.181153 -1.418726,-1.293414 -3.313133,-1.940142 -5.683227,-1.940185 -2.28371,4.3e-5 -4.146257,0.502118 -5.587647,1.506225 -1.44142,1.004191 -2.815442,2.455484 -4.12207,4.353882 l -6.33252,-3.897949 c 1.781244,-3.335405 4.03527,-5.6725607 6.762085,-7.0114746 2.726793,-1.3388178 5.912459,-2.0082507 9.557007,-2.0083008 4.810521,5.01e-5 8.646943,1.2114747 11.509278,3.6342774 2.862269,2.422896 4.29342,5.822795 4.293457,10.199707 -3.7e-5,2.162143 -0.311682,4.20743 -0.934937,6.135864 -0.623326,1.928495 -1.597812,3.764675 -2.923462,5.508545 -1.325715,1.74392 -3.053863,3.686667 -5.184448,5.828247 -2.130641,2.141618 -6.860983,6.010267 -14.19104,11.605957 l 24.785156,0 0,7.198242 z"
       id="path3812"
       style="font-weight:bold;fill:#776e65" />
    <path
       d="m 90.423088,30.353439 c -4.1e-5,8.660172 -1.483926,15.084238 -4.45166,19.272217 -2.967807,4.187989 -7.578398,6.281981 -13.831787,6.281983 -6.262223,-2e-6 -10.863659,-2.080078 -13.804321,-6.240235 -2.94068,-4.160147 -4.411016,-10.575424 -4.411011,-19.245849 -5e-6,-8.663053 1.471796,-15.076499 4.415405,-19.240357 2.943592,-4.1637704 7.543563,-6.2456775 13.799927,-6.2457274 6.298799,4.99e-5 10.920743,2.0709707 13.865845,6.2127684 2.945029,4.141885 4.417561,10.543612 4.417602,19.2052 z m -8.26831,0 c -3.3e-5,-6.521453 -0.818514,-11.234583 -2.455445,-14.139404 -1.636991,-2.904744 -4.156886,-4.357135 -7.559692,-4.357178 -3.364765,4.3e-5 -5.869646,1.460491 -7.514649,4.381348 -1.645033,2.920934 -2.467541,7.648713 -2.467529,14.18335 -1.2e-5,6.54201 0.821398,11.271619 2.464233,14.188842 1.642806,2.917244 4.148785,4.375861 7.517945,4.375855 3.405736,6e-6 5.926363,-1.461907 7.561889,-4.385742 1.635467,-2.923815 2.453215,-7.672834 2.453248,-14.247071 z"
       id="path3814"
       style="font-weight:bold;fill:#776e65" />
    <path
       d="m 128.69286,44.257736 0,10.582031 -7.68164,0 0,-10.582031 -24.543454,0 0,-7.066406 25.198244,-31.4648438 7.02685,0 0,31.6098628 6.58521,0 0,6.921387 z m -7.68164,-28.023926 -16.72119,21.102539 16.72119,0 z"
       id="path3816"
       style="font-weight:bold;fill:#776e65" />
    <path
       d="m 177.51171,41.864914 c -4e-5,4.681649 -1.58939,8.181157 -4.76807,10.498535 -3.17874,2.317383 -7.39675,3.476073 -12.65405,3.476074 -5.7173,-10e-7 -10.06202,-1.194946 -13.03418,-3.584839 -2.97217,-2.389887 -4.45825,-5.853141 -4.45825,-10.38977 0,-6.442363 3.43578,-10.822242 10.30737,-13.139648 -2.45069,-0.868626 -4.24769,-1.80759 -5.39099,-2.816895 -1.14332,-1.009247 -2.0647,-2.188079 -2.76416,-3.536499 -0.69947,-1.348355 -1.0492,-2.927821 -1.04919,-4.738403 -1e-5,-4.069295 1.40185,-7.237383 4.20556,-9.5042728 2.8037,-2.2667968 6.86498,-3.4002185 12.18384,-3.4002686 5.21482,5.01e-5 9.23837,1.0983156 12.07068,3.2947998 2.83224,2.1965776 4.24838,5.3771166 4.24841,9.5416256 -3e-5,1.750524 -0.37064,3.33585 -1.11181,4.755982 -0.74125,1.420197 -1.71097,2.657256 -2.90918,3.711181 -1.19828,1.053983 -2.94876,1.971341 -5.25147,2.752076 3.45554,1.231958 6.04867,2.937401 7.77942,5.116333 1.73068,2.178974 2.59603,4.833634 2.59607,7.963989 z m -9.02637,-24.16333 c -3e-5,-1.954063 -0.6885,-3.525838 -2.06543,-4.715332 -1.37698,-1.18941 -3.48708,-1.784136 -6.33032,-1.78418 -3.03078,4.4e-5 -5.19911,0.591108 -6.505,1.773194 -1.30592,1.182169 -1.95888,2.688759 -1.95887,4.519775 -1e-5,1.117712 0.25487,2.048985 0.76465,2.793823 0.50975,0.744907 1.35753,1.519809 2.54334,2.324707 1.18577,0.804963 2.90806,1.759674 5.16687,2.864136 2.58542,-1.102997 4.62924,-2.266814 6.13147,-3.491455 1.50217,-1.224575 2.25326,-2.652797 2.25329,-4.284668 z m 1.13599,24.16333 c -3e-5,-1.302232 -0.29446,-2.469345 -0.8833,-3.501343 -0.5889,-1.031965 -1.50259,-2.008282 -2.74109,-2.928955 -1.23855,-0.920634 -3.21426,-2.024026 -5.92712,-3.310181 -2.65725,1.155784 -4.58681,2.18154 -5.7887,3.077271 -1.20192,0.895771 -2.13466,1.891497 -2.79822,2.987183 -0.66358,1.095718 -0.99537,2.344496 -0.99536,3.746337 -1e-5,2.242687 0.76427,4.024668 2.29285,5.345948 1.52855,1.321295 3.96495,1.981939 7.3092,1.981933 3.36619,6e-6 5.79636,-0.684442 7.29053,-2.053344 1.49411,-1.368888 2.24118,-3.150502 2.24121,-5.344849 z"
       id="path3818"
       style="font-weight:bold;fill:#776e65" />
  </g>
</svg>
