<?xml version="1.0" encoding="UTF-8" standalone="no"?>
<!-- Created with Inkscape (http://www.inkscape.org/) -->

<svg
   xmlns:dc="http://purl.org/dc/elements/1.1/"
   xmlns:cc="http://creativecommons.org/ns#"
   xmlns:rdf="http://www.w3.org/1999/02/22-rdf-syntax-ns#"
   xmlns:svg="http://www.w3.org/2000/svg"
   xmlns="http://www.w3.org/2000/svg"
   version="1.2"
   width="100"
   height="100"
   id="svg2">
  <metadata
     id="metadata17">
    <rdf:RDF>
      <cc:Work
         rdf:about="">
        <dc:format>image/svg+xml</dc:format>
        <dc:type
           rdf:resource="http://purl.org/dc/dcmitype/StillImage" />
        <dc:title></dc:title>
      </cc:Work>
    </rdf:RDF>
  </metadata>
  <defs
     id="defs15" />
  <g
     id="g4">
    <title
       id="title6">Layer 1</title>
  </g>
  <g
     id="g8">
    <title
       id="title10">Layer 2</title>
    <path
       d="m 6,0 88,0 c 3.324,0 6,2.676 6,6 l 0,88 c 0,3.324 -2.676,6 -6,6 L 6,100 C 2.676,100 0,97.324 0,94 L 0,6 C 0,2.676 2.676,0 6,0 z"
       id="svg_10"
       style="fill:#edc53f" />
  </g>
  <flowRoot
     transform="translate(1.4981076,29.812341)"
     id="flowRoot2994"
     xml:space="preserve"
     style="font-size:40px;font-style:normal;font-weight:normal;line-height:125%;letter-spacing:0px;word-spacing:0px;fill:#FFFFFF;fill-opacity:1;stroke:none;font-family:Sans"><flowRegion
       id="flowRegion2993"><rect
         width="102.54237"
         height="103.81356"
         x="-1.059322"
         y="-1.4830509"
         id="rect2995" /></flowRegion><flowPara
       id="flowPara2997" /></flowRoot>  <g
     id="text2999"
     style="font-size:40px;font-style:normal;font-weight:normal;line-height:125%;letter-spacing:0px;word-spacing:0px;fill:#FFFFFF;fill-opacity:1;stroke:none;font-family:Sans">
    <path
       d="m 23.632771,59.745762 -3.076171,0 0,-19.602051 c -0.74057,0.706399 -1.711841,1.412779 -2.913819,2.119141 -1.201991,0.706397 -2.281499,1.236181 -3.238525,1.589355 l 0,-2.973633 c 1.720372,-0.808899 3.224277,-1.788716 4.511719,-2.939453 1.287425,-1.150693 2.198882,-2.267228 2.734375,-3.349609 l 1.982421,0 z"
       id="path2998"
       style="font-size:35px" />
    <path
       d="m 31.528279,47.389805 c -1e-6,-2.962224 0.304767,-5.346255 0.914307,-7.1521 0.609535,-1.805805 1.515296,-3.198626 2.717285,-4.178467 1.201979,-0.979793 2.714429,-1.469701 4.537354,-1.469726 1.34439,2.5e-5 2.523588,0.270614 3.537597,0.811767 1.013983,0.541203 1.851385,1.321638 2.512207,2.341309 0.660791,1.019715 1.179183,2.261576 1.555176,3.725586 0.375959,1.464047 0.563947,3.437922 0.563965,5.921631 -1.8e-5,2.939462 -0.301938,5.3121 -0.905762,7.11792 -0.603857,1.80583 -1.50677,3.201499 -2.70874,4.187011 -1.201999,0.985515 -2.720145,1.478272 -4.554443,1.478272 -2.415372,0 -4.312343,-0.865885 -5.690918,-2.597656 -1.652021,-2.084957 -2.478029,-5.480136 -2.478028,-10.185547 z m 3.161621,0 c -4e-6,4.112964 0.481359,6.850184 1.444092,8.21167 0.962721,1.361493 2.150464,2.042238 3.563233,2.042236 1.412749,2e-6 2.600492,-0.683591 3.563232,-2.050781 0.962714,-1.367182 1.444077,-4.101554 1.444092,-8.203125 -1.5e-5,-4.124333 -0.481378,-6.864402 -1.444092,-8.220215 -0.96274,-1.355772 -2.161876,-2.033669 -3.597412,-2.033691 -1.412769,2.2e-5 -2.540697,0.598166 -3.383789,1.794433 -1.059576,1.526712 -1.58936,4.346534 -1.589356,8.459473 z"
       id="path3000"
       style="font-size:35px" />
    <path
       d="m 67.177693,56.789219 0,2.956543 -16.560058,0 c -0.02279,-0.740559 0.09684,-1.452635 0.358886,-2.136231 0.421548,-1.127926 1.096596,-2.238765 2.025147,-3.332519 0.928544,-1.093744 2.270095,-2.358391 4.024658,-3.793945 2.722972,-2.233062 4.562976,-4.001859 5.52002,-5.306397 0.957017,-1.304509 1.435532,-2.537825 1.435547,-3.699951 -1.5e-5,-1.219056 -0.435805,-2.247294 -1.307373,-3.084717 -0.871595,-0.83738 -2.008068,-1.256081 -3.409424,-1.256103 -1.481128,2.2e-5 -2.666023,0.444358 -3.554688,1.333007 -0.888677,0.888693 -1.338709,2.11916 -1.350097,3.691407 l -3.161622,-0.324707 c 0.21647,-2.358379 1.031085,-4.155659 2.443848,-5.391846 1.412755,-1.236141 3.309726,-1.854223 5.690918,-1.854248 2.403959,2.5e-5 4.306627,0.666528 5.708008,1.999512 1.40135,1.333029 2.102033,2.985046 2.102051,4.956054 -1.8e-5,1.002622 -0.205096,1.988135 -0.615235,2.956543 -0.410173,0.968439 -1.090917,1.988132 -2.042236,3.059082 -0.951349,1.070975 -2.532158,2.5407 -4.742432,4.40918 -1.845711,1.549485 -3.030606,2.60051 -3.554687,3.153076 -0.524095,0.552576 -0.957037,1.107995 -1.298828,1.66626 z"
       id="path3002"
       style="font-size:35px" />
    <path
       d="m 80.353963,59.745762 0,-5.998535 -10.869141,0 0,-2.819825 11.433106,-16.235351 2.512207,0 0,16.235351 3.383789,0 0,2.819825 -3.383789,0 0,5.998535 z m 0,-8.81836 0,-11.296386 -7.844238,11.296386 z"
       id="path3004"
       style="font-size:35px" />
  </g>
</svg>
