<?xml version="1.0" encoding="UTF-8" standalone="no"?>
<!-- Created with Inkscape (http://www.inkscape.org/) -->

<svg
   xmlns:dc="http://purl.org/dc/elements/1.1/"
   xmlns:cc="http://creativecommons.org/ns#"
   xmlns:rdf="http://www.w3.org/1999/02/22-rdf-syntax-ns#"
   xmlns:svg="http://www.w3.org/2000/svg"
   xmlns="http://www.w3.org/2000/svg"
   version="1.2"
   width="100"
   height="100"
   id="svg2">
  <metadata
     id="metadata17">
    <rdf:RDF>
      <cc:Work
         rdf:about="">
        <dc:format>image/svg+xml</dc:format>
        <dc:type
           rdf:resource="http://purl.org/dc/dcmitype/StillImage" />
        <dc:title></dc:title>
      </cc:Work>
    </rdf:RDF>
  </metadata>
  <defs
     id="defs15" />
  <g
     id="g4">
    <title
       id="title6">Layer 1</title>
  </g>
  <g
     id="g8">
    <title
       id="title10">Layer 2</title>
    <path
       d="m 6,0 88,0 c 3.324,0 6,2.676 6,6 l 0,88 c 0,3.324 -2.676,6 -6,6 L 6,100 C 2.676,100 0,97.324 0,94 L 0,6 C 0,2.676 2.676,0 6,0 z"
       id="svg_10"
       style="fill:#edcf72" />
  </g>
  <flowRoot
     id="flowRoot3038"
     xml:space="preserve"
     style="font-size:40px;font-style:normal;font-weight:normal;line-height:125%;letter-spacing:0px;word-spacing:0px;fill:#000000;fill-opacity:1;stroke:none;font-family:Sans"><flowRegion
       id="flowRegion3040"><rect
         width="50"
         height="50"
         x="0"
         y="0"
         id="rect3042" /></flowRegion><flowPara
       id="flowPara3044" /></flowRoot>  <g
     transform="translate(0.44943229,30.111962)"
     id="flowRoot3054"
     style="font-size:40px;font-style:normal;font-weight:normal;text-align:center;line-height:125%;letter-spacing:0px;word-spacing:0px;text-anchor:middle;fill:#ffffff;fill-opacity:1;stroke:none;font-family:Sans">
    <path
       d="m 28.446552,1.6255411 -2.924963,0 C 25.037832,4.0011656 23.946597,5.6061433 22.247881,6.4404791 20.549145,7.274869 18.580422,7.6648636 16.341707,7.610464 l 0,3.059961 8.279894,0 0,22.859705 3.824951,0 z"
       id="path3021"
       style="font-size:45px;font-family:HelveticaNeueLT Pro 55 Roman;-inkscape-font-specification:HelveticaNeueLT Pro 55 Roman" />
    <path
       d="M 43.280511,12.920396 C 43.201757,10.917007 43.663,9.1189064 44.664243,7.5260898 45.665472,5.9333251 47.2742,5.0914619 49.490431,5.0004976 c 1.733402,0.023466 3.182756,0.5503335 4.348068,1.580605 1.16528,1.0303254 1.770897,2.423431 1.816853,4.1793204 -0.0019,2.143119 -0.684384,3.898094 -2.047474,5.264933 -1.363123,1.366873 -3.395595,2.851852 -6.097421,4.454942 -2.305291,1.255309 -4.287138,2.828412 -5.945548,4.719315 -1.658419,1.890919 -2.66153,4.667755 -3.009337,8.330517 l 20.834732,0 0,-3.374956 -16.379789,0 c 0.440613,-1.914347 1.528097,-3.508075 3.262457,-4.78119 1.734342,-1.273099 3.631816,-2.484332 5.692427,-3.633702 2.054957,-1.206534 3.839933,-2.640889 5.354931,-4.30307 1.51496,-1.662148 2.309949,-3.872743 2.38497,-6.631789 C 59.634966,7.8242367 58.661855,5.551768 56.785963,3.98801 54.910032,2.424311 52.55319,1.6368221 49.715428,1.6255411 46.312337,1.6911967 43.713623,2.7636816 41.919277,4.842999 40.124923,6.9223737 39.303685,9.6148366 39.45556,12.920396 z"
       id="path3023"
       style="font-size:45px;font-family:HelveticaNeueLT Pro 55 Roman;-inkscape-font-specification:HelveticaNeueLT Pro 55 Roman" />
    <path
       d="m 69.499324,9.9054345 c 0.04124,-1.6021423 0.588735,-2.8190005 1.642478,-3.6505784 1.053727,-0.8315233 2.366209,-1.2496424 3.93745,-1.2543585 1.581528,0.0019 2.862134,0.4143975 3.841825,1.2374834 0.979658,0.8231405 1.484026,2.0456238 1.513106,3.6674535 -0.02814,1.6312515 -0.523134,2.8912335 -1.48498,3.7799515 -0.961879,0.888757 -2.221862,1.338751 -3.779952,1.349982 -1.594678,0.0028 -2.927785,-0.419039 -3.999324,-1.265609 -1.071556,-0.846531 -1.628423,-2.134638 -1.670603,-3.8643245 z M 65.449376,9.7704362 c 0.01687,1.4681288 0.421867,2.7956098 1.214985,3.9824478 0.79311,1.186878 1.873095,2.064366 3.239958,2.632467 -1.807482,0.646883 -3.187463,1.659369 -4.139947,3.03746 -0.95249,1.37812 -1.432483,3.020597 -1.439981,4.927437 0.06937,3.239965 1.111857,5.669931 3.127459,7.289907 2.015592,1.619979 4.588057,2.429968 7.717401,2.429968 3.019632,-0.01969 5.518972,-0.869051 7.498028,-2.548092 1.979015,-1.679037 3.004626,-4.069629 3.076836,-7.171783 0.0028,-1.9884 -0.46408,-3.659002 -1.400608,-5.01181 -0.936571,-1.35278 -2.359676,-2.337141 -4.269319,-2.953087 1.345276,-0.627162 2.412136,-1.521525 3.200584,-2.683091 0.788405,-1.161527 1.191525,-2.472134 1.209359,-3.9318238 0.03279,-2.1308846 -0.707824,-4.000234 -2.221846,-5.6080538 -1.514062,-1.6077611 -3.998403,-2.453374 -7.453029,-2.5368413 -2.535915,0.013157 -4.70901,0.718147 -6.519292,2.1149727 -1.810292,1.3968853 -2.757154,3.4068574 -2.840588,6.0299224 z m 2.924963,14.7598098 c 0.04499,-1.889028 0.697484,-3.375882 1.957474,-4.460568 1.259974,-1.084658 2.857452,-1.637776 4.792439,-1.659353 1.848712,0.03939 3.393691,0.624382 4.63494,1.754977 1.241215,1.130623 1.886206,2.570603 1.934975,4.319945 -0.03283,1.814046 -0.642198,3.2934 -1.828102,4.438067 -1.185938,1.144676 -2.751541,1.735293 -4.696814,1.771853 -2.015609,-0.01781 -3.643087,-0.567177 -4.882438,-1.648104 -1.239366,-1.080918 -1.876857,-2.586522 -1.912474,-4.516817 z"
       id="path3025"
       style="font-size:45px;font-family:HelveticaNeueLT Pro 55 Roman;-inkscape-font-specification:HelveticaNeueLT Pro 55 Roman" />
  </g>
</svg>
