<?xml version="1.0" encoding="UTF-8" standalone="no"?>
<!-- Created with Inkscape (http://www.inkscape.org/) -->

<svg
   xmlns:dc="http://purl.org/dc/elements/1.1/"
   xmlns:cc="http://creativecommons.org/ns#"
   xmlns:rdf="http://www.w3.org/1999/02/22-rdf-syntax-ns#"
   xmlns:svg="http://www.w3.org/2000/svg"
   xmlns="http://www.w3.org/2000/svg"
   version="1.2"
   width="100"
   height="100"
   id="svg2">
  <metadata
     id="metadata17">
    <rdf:RDF>
      <cc:Work
         rdf:about="">
        <dc:format>image/svg+xml</dc:format>
        <dc:type
           rdf:resource="http://purl.org/dc/dcmitype/StillImage" />
        <dc:title></dc:title>
      </cc:Work>
    </rdf:RDF>
  </metadata>
  <defs
     id="defs15" />
  <g
     id="g4">
    <title
       id="title6">Layer 1</title>
  </g>
  <g
     id="g8">
    <title
       id="title10">Layer 2</title>
    <path
       d="m 6,0 88,0 c 3.324,0 6,2.676 6,6 l 0,88 c 0,3.324 -2.676,6 -6,6 L 6,100 C 2.676,100 0,97.324 0,94 L 0,6 C 0,2.676 2.676,0 6,0 z"
       id="svg_10"
       style="fill:#f59563" />
  </g>
  <g
     transform="translate(1.1984861,24.568964)"
     id="flowRoot2994"
     style="font-size:40px;font-style:normal;font-weight:normal;line-height:125%;letter-spacing:0px;word-spacing:0px;fill:#FFFFFF;fill-opacity:1;stroke:none;font-family:Sans">
    <path
       d="m 38.964514,1.9867724 -3.574954,0 c -0.591259,2.9035411 -1.924991,4.8651805 -4.0012,5.8849242 -2.076233,1.01981 -4.482449,1.49647 -7.218656,1.4299816 l 0,3.7399518 10.11987,0 0,27.93964 4.67494,0 z"
       id="path2993"
       style="font-size:55px;text-align:center;text-anchor:middle;font-family:HelveticaNeueLT Pro 55 Roman;-inkscape-font-specification:HelveticaNeueLT Pro 55 Roman" />
    <path
       d="M 77.444647,11.941644 C 77.123789,8.735677 76.01922,6.2790445 74.130938,4.5717391 72.242607,2.8645066 69.68056,2.0028519 66.444788,1.9867724 c -3.674781,0.059452 -6.561222,1.0711664 -8.659334,3.0351466 -2.098127,1.9640521 -3.579032,4.5238931 -4.442721,7.679531 -0.863695,3.155694 -1.281282,6.550708 -1.25276,10.185053 -0.04923,2.794116 0.250888,5.620806 0.900357,8.480077 0.649463,2.85929 1.943643,5.266355 3.882543,7.221202 1.938887,1.954852 4.817859,2.972678 8.636927,3.05348 3.260218,-0.05568 5.845182,-0.7632 7.7549,-2.122566 1.909673,-1.359363 3.272431,-3.0365 4.08828,-5.031417 0.815794,-1.994904 1.213011,-3.973518 1.191652,-5.935849 -0.02982,-3.679207 -1.083972,-6.688123 -3.16246,-9.026759 -2.078538,-2.338592 -5.002664,-3.546284 -8.772386,-3.623078 -2.120925,-0.01029 -3.997775,0.395333 -5.630554,1.21686 -1.6328,0.821575 -3.000906,2.120932 -4.104321,3.898074 l -0.109998,-0.109998 c 0.02206,-2.069921 0.277365,-4.236619 0.765915,-6.500102 0.488535,-2.26343 1.407905,-4.193835 2.758112,-5.791222 1.350186,-1.5973223 3.328802,-2.4318167 5.935851,-2.5034857 1.881417,0.022952 3.384729,0.5546113 4.509942,1.5949795 1.125172,1.0404346 1.803496,2.4520822 2.034974,4.2349452 z m -11.71485,8.084896 c 2.661718,0.06648 4.639399,0.937299 5.933049,2.612466 1.293606,1.675203 1.937556,3.756008 1.93185,6.24242 -0.01148,2.381021 -0.689805,4.39766 -2.034974,6.049922 -1.345211,1.652275 -3.288518,2.51393 -5.829925,2.584967 -2.574667,-0.05958 -4.561515,-0.9029 -5.960549,-2.529967 -1.399054,-1.627055 -2.107168,-3.68036 -2.124346,-6.159921 0.0103,-2.508183 0.70467,-4.586696 2.083098,-6.235546 1.378409,-1.648813 3.379006,-2.503592 6.001797,-2.564341 z"
       id="path2995"
       style="font-size:55px;text-align:center;text-anchor:middle;font-family:HelveticaNeueLT Pro 55 Roman;-inkscape-font-specification:HelveticaNeueLT Pro 55 Roman" />
  </g>
</svg>
