<?xml version="1.0" encoding="UTF-8" standalone="no"?>
<!-- Created with Inkscape (http://www.inkscape.org/) -->

<svg
   xmlns:dc="http://purl.org/dc/elements/1.1/"
   xmlns:cc="http://creativecommons.org/ns#"
   xmlns:rdf="http://www.w3.org/1999/02/22-rdf-syntax-ns#"
   xmlns:svg="http://www.w3.org/2000/svg"
   xmlns="http://www.w3.org/2000/svg"
   version="1.2"
   width="100"
   height="100"
   id="svg2">
  <metadata
     id="metadata17">
    <rdf:RDF>
      <cc:Work
         rdf:about="">
        <dc:format>image/svg+xml</dc:format>
        <dc:type
           rdf:resource="http://purl.org/dc/dcmitype/StillImage" />
        <dc:title></dc:title>
      </cc:Work>
    </rdf:RDF>
  </metadata>
  <defs
     id="defs15" />
  <g
     id="g4">
    <title
       id="title6">Layer 1</title>
  </g>
  <g
     id="g8">
    <title
       id="title10">Layer 2</title>
    <path
       d="m 6,0 88,0 c 3.324,0 6,2.676 6,6 l 0,88 c 0,3.324 -2.676,6 -6,6 L 6,100 C 2.676,100 0,97.324 0,94 L 0,6 C 0,2.676 2.676,0 6,0 z"
       id="svg_10"
       style="fill:#eee4da" />
  </g>
  <g
     transform="translate(1.1984861,24.568964)"
     id="flowRoot2994"
     style="font-size:40px;font-style:normal;font-weight:normal;line-height:125%;letter-spacing:0px;word-spacing:0px;fill:#776e65;fill-opacity:1;stroke:none;font-family:Sans">
    <path
       d="m 41.787291,15.791595 c -0.09626,-2.448587 0.467487,-4.646265 1.691229,-6.5930409 1.223724,-1.9467123 3.189946,-2.9756563 5.898674,-3.0868348 2.118601,0.02868 3.890035,0.6726298 5.314305,1.9318505 1.42423,1.2592867 2.164429,2.9619712 2.220598,5.1080592 -0.0023,2.619366 -0.836469,4.764337 -2.502469,6.434917 -1.666039,1.670623 -4.150171,3.485598 -7.452403,5.44493 -2.817577,1.534266 -5.239835,3.456948 -7.266781,5.768051 -2.026956,2.311123 -3.252981,5.705034 -3.678078,10.181743 l 25.464672,0 0,-4.124947 -20.019742,0 c 0.538527,-2.339756 1.867675,-4.287646 3.987448,-5.843676 2.119751,-1.55601 4.438886,-3.036405 6.957411,-4.441191 2.511614,-1.474653 4.69325,-3.227754 6.544916,-5.259308 1.851616,-2.031515 2.823269,-4.733352 2.914962,-8.10552 C 61.77607,9.562956 60.586711,6.7854943 58.293954,4.8742344 56.00115,2.9630468 53.120565,2.0005604 49.65219,1.9867724 c -4.159333,0.080246 -7.33554,1.3910607 -9.528629,3.9324486 -2.1931,2.541458 -3.196835,5.832246 -3.011209,9.872374 z"
       id="path2992"
       style="font-size:55px;text-align:center;text-anchor:middle;font-family:HelveticaNeueLT Pro 55 Roman;-inkscape-font-specification:HelveticaNeueLT Pro 55 Roman" />
  </g>
</svg>
