<?xml version="1.0" encoding="UTF-8" standalone="no"?>
<!-- Created with Inkscape (http://www.inkscape.org/) -->

<svg
   xmlns:dc="http://purl.org/dc/elements/1.1/"
   xmlns:cc="http://creativecommons.org/ns#"
   xmlns:rdf="http://www.w3.org/1999/02/22-rdf-syntax-ns#"
   xmlns:svg="http://www.w3.org/2000/svg"
   xmlns="http://www.w3.org/2000/svg"
   version="1.2"
   width="100"
   height="100"
   id="svg2">
  <metadata
     id="metadata17">
    <rdf:RDF>
      <cc:Work
         rdf:about="">
        <dc:format>image/svg+xml</dc:format>
        <dc:type
           rdf:resource="http://purl.org/dc/dcmitype/StillImage" />
        <dc:title></dc:title>
      </cc:Work>
    </rdf:RDF>
  </metadata>
  <defs
     id="defs15" />
  <g
     id="g4">
    <title
       id="title6">Layer 1</title>
  </g>
  <g
     id="g8">
    <title
       id="title10">Layer 2</title>
    <path
       d="m 6,0 88,0 c 3.324,0 6,2.676 6,6 l 0,88 c 0,3.324 -2.676,6 -6,6 L 6,100 C 2.676,100 0,97.324 0,94 L 0,6 C 0,2.676 2.676,0 6,0 z"
       id="svg_10"
       style="fill:#edc22e" />
  </g>
  <flowRoot
     transform="translate(1.4981076,29.812341)"
     id="flowRoot2991"
     xml:space="preserve"
     style="font-size:40px;font-style:normal;font-weight:normal;line-height:125%;letter-spacing:0px;word-spacing:0px;fill:#000000;fill-opacity:1;stroke:none;font-family:Sans"><flowRegion
       id="flowRegion2993"><rect
         width="102.54237"
         height="103.81356"
         x="-1.059322"
         y="-1.4830509"
         id="rect2995" /></flowRegion><flowPara
       id="flowPara2997" /></flowRoot>  <g
     id="text2999"
     style="font-size:40px;font-style:normal;font-weight:normal;line-height:125%;letter-spacing:0px;word-spacing:0px;fill:#FFFFFF;fill-opacity:1;stroke:none;font-family:Sans">
    <path
       d="m 28.662282,57.388462 0,2.956543 -16.560059,0 c -0.02279,-0.740559 0.09684,-1.452635 0.358887,-2.13623 0.421548,-1.127927 1.096596,-2.238766 2.025147,-3.33252 0.928543,-1.093743 2.270095,-2.358391 4.024658,-3.793945 2.722971,-2.233062 4.562976,-4.001859 5.520019,-5.306397 0.957018,-1.304509 1.435533,-2.537824 1.435547,-3.699951 -1.4e-5,-1.219056 -0.435805,-2.247294 -1.307373,-3.084717 -0.871594,-0.83738 -2.008068,-1.256081 -3.409424,-1.256103 -1.481128,2.2e-5 -2.666022,0.444358 -3.554687,1.333008 -0.888677,0.888692 -1.338709,2.119159 -1.350098,3.691406 l -3.161621,-0.324707 c 0.21647,-2.358378 1.031085,-4.155658 2.443848,-5.391846 1.412755,-1.236141 3.309725,-1.854223 5.690918,-1.854248 2.403959,2.5e-5 4.306626,0.666528 5.708008,1.999512 1.40135,1.333029 2.102033,2.985046 2.10205,4.956054 -1.7e-5,1.002622 -0.205095,1.988135 -0.615234,2.956543 -0.410173,0.968439 -1.090918,1.988132 -2.042236,3.059082 -0.951349,1.070975 -2.532158,2.5407 -4.742432,4.40918 -1.845712,1.549486 -3.030606,2.60051 -3.554688,3.153076 -0.524094,0.552576 -0.957036,1.107995 -1.298828,1.66626 z"
       id="path2998"
       style="font-size:35px" />
    <path
       d="m 31.977712,47.989048 c -2e-6,-2.962224 0.304767,-5.346255 0.914306,-7.1521 0.609535,-1.805805 1.515296,-3.198626 2.717285,-4.178466 1.20198,-0.979793 2.71443,-1.469702 4.537354,-1.469727 1.34439,2.5e-5 2.523588,0.270614 3.537598,0.811768 1.013983,0.541202 1.851384,1.321637 2.512207,2.341308 0.660791,1.019715 1.179182,2.261576 1.555175,3.725586 0.375959,1.464047 0.563948,3.437922 0.563965,5.921631 -1.7e-5,2.939463 -0.301938,5.3121 -0.905761,7.11792 -0.603858,1.80583 -1.50677,3.201499 -2.708741,4.187012 -1.201998,0.985514 -2.720145,1.478271 -4.554443,1.478271 -2.415372,0 -4.312343,-0.865885 -5.690918,-2.597656 -1.65202,-2.084957 -2.478029,-5.480136 -2.478027,-10.185547 z m 3.161621,0 c -5e-6,4.112964 0.481359,6.850185 1.444092,8.21167 0.96272,1.361494 2.150463,2.042238 3.563232,2.042236 1.412749,2e-6 2.600492,-0.683591 3.563232,-2.050781 0.962714,-1.367182 1.444078,-4.101554 1.444092,-8.203125 -1.4e-5,-4.124332 -0.481378,-6.864401 -1.444092,-8.220215 -0.96274,-1.355772 -2.161876,-2.033669 -3.597412,-2.033691 -1.412768,2.2e-5 -2.540697,0.598166 -3.383789,1.794433 -1.059575,1.526712 -1.58936,4.346534 -1.589355,8.459473 z"
       id="path3000"
       style="font-size:35px" />
    <path
       d="m 61.320973,60.345005 0,-5.998535 -10.86914,0 0,-2.819824 11.433105,-16.235352 2.512207,0 0,16.235352 3.383789,0 0,2.819824 -3.383789,0 0,5.998535 z m 0,-8.818359 0,-11.296387 -7.844238,11.296387 z"
       id="path3002"
       style="font-size:35px" />
    <path
       d="m 75.676442,46.758579 c -1.276046,-0.467108 -2.221684,-1.133611 -2.836914,-1.999511 -0.615237,-0.865869 -0.922854,-1.902652 -0.922851,-3.110352 -3e-6,-1.822896 0.655107,-3.355284 1.965332,-4.597168 1.310215,-1.241837 3.053378,-1.862768 5.229492,-1.862793 2.187488,2.5e-5 3.94774,0.635197 5.280761,1.905518 1.332992,1.270367 1.999495,2.816996 1.999512,4.639892 -1.7e-5,1.162127 -0.304785,2.173275 -0.914306,3.033447 -0.609554,0.860204 -1.535253,1.523859 -2.7771,1.990967 1.538071,0.501315 2.708724,1.310234 3.511963,2.426758 0.803205,1.116547 1.204816,2.449553 1.204834,3.999024 -1.8e-5,2.141932 -0.757667,3.94206 -2.272949,5.40039 -1.515314,1.458334 -3.509127,2.1875 -5.981446,2.1875 -2.472338,0 -4.466151,-0.732015 -5.981445,-2.196045 -1.515302,-1.464027 -2.272951,-3.28979 -2.272949,-5.477295 -2e-6,-1.629223 0.413002,-2.99356 1.239013,-4.093017 0.826006,-1.099434 2.002356,-1.848539 3.529053,-2.247315 z m -0.615234,-5.212402 c -6e-6,1.184913 0.381667,2.153337 1.145019,2.905273 0.763339,0.751969 1.754549,1.127945 2.973633,1.12793 1.184885,1.5e-5 2.156157,-0.373113 2.913818,-1.119385 0.757637,-0.74624 1.136461,-1.660545 1.136475,-2.74292 -1.4e-5,-1.12791 -0.390231,-2.076395 -1.170654,-2.845459 -0.780448,-0.76902 -1.75172,-1.153541 -2.913819,-1.153564 -1.173511,2.3e-5 -2.147631,0.375999 -2.922363,1.12793 -0.774745,0.751973 -1.162115,1.652038 -1.162109,2.700195 z m -0.991211,11.569824 c -5e-6,0.877285 0.207921,1.72608 0.623779,2.546387 0.415847,0.820316 1.033929,1.455488 1.854248,1.905517 0.820305,0.450035 1.703279,0.675051 2.648926,0.675049 1.469715,2e-6 2.683093,-0.472816 3.640137,-1.418457 0.957017,-0.945633 1.435532,-2.147618 1.435547,-3.605957 -1.5e-5,-1.481111 -0.492772,-2.705882 -1.478272,-3.674316 -0.985527,-0.968413 -2.218842,-1.452625 -3.699951,-1.452637 -1.446948,1.2e-5 -2.646085,0.478527 -3.597412,1.435547 -0.95134,0.957041 -1.427007,2.153329 -1.427002,3.588867 z"
       id="path3004"
       style="font-size:35px" />
  </g>
</svg>
