<?xml version="1.0" encoding="UTF-8" standalone="no"?>
<!-- Created with Inkscape (http://www.inkscape.org/) -->

<svg
   xmlns:dc="http://purl.org/dc/elements/1.1/"
   xmlns:cc="http://creativecommons.org/ns#"
   xmlns:rdf="http://www.w3.org/1999/02/22-rdf-syntax-ns#"
   xmlns:svg="http://www.w3.org/2000/svg"
   xmlns="http://www.w3.org/2000/svg"
   version="1.2"
   width="100"
   height="100"
   id="svg2">
  <metadata
     id="metadata17">
    <rdf:RDF>
      <cc:Work
         rdf:about="">
        <dc:format>image/svg+xml</dc:format>
        <dc:type
           rdf:resource="http://purl.org/dc/dcmitype/StillImage" />
        <dc:title></dc:title>
      </cc:Work>
    </rdf:RDF>
  </metadata>
  <defs
     id="defs15" />
  <g
     id="g4">
    <title
       id="title6">Layer 1</title>
  </g>
  <g
     id="g8">
    <title
       id="title10">Layer 2</title>
    <path
       d="m 6,0 88,0 c 3.324,0 6,2.676 6,6 l 0,88 c 0,3.324 -2.676,6 -6,6 L 6,100 C 2.676,100 0,97.324 0,94 L 0,6 C 0,2.676 2.676,0 6,0 z"
       id="svg_10"
       style="fill:#edcc61" />
  </g>
  <g
     transform="translate(1.4981076,29.812341)"
     id="flowRoot2994"
     style="font-size:40px;font-style:normal;font-weight:normal;line-height:125%;letter-spacing:0px;word-spacing:0px;fill:#FFFFFF;fill-opacity:1;stroke:none;font-family:Sans">
    <path
       d="m 18.231683,12.920396 c -0.07875,-2.003389 0.382489,-3.8014896 1.383732,-5.3943062 1.001229,-1.5927647 2.609957,-2.4346279 4.826188,-2.5255922 1.733402,0.023466 3.182756,0.5503335 4.348068,1.580605 1.165279,1.0303254 1.770896,2.423431 1.816853,4.1793204 -0.0019,2.143119 -0.684384,3.898094 -2.047475,5.264933 -1.363122,1.366873 -3.395594,2.851852 -6.09742,4.454942 -2.305291,1.255309 -4.287138,2.828412 -5.945549,4.719315 -1.658418,1.890919 -2.661529,4.667755 -3.009336,8.330517 l 20.834732,0 0,-3.374956 -16.379789,0 c 0.440613,-1.914347 1.528097,-3.508075 3.262457,-4.78119 1.734342,-1.273099 3.631816,-2.484332 5.692427,-3.633702 2.054957,-1.206534 3.839932,-2.640889 5.354931,-4.30307 1.514959,-1.662148 2.309948,-3.872743 2.38497,-6.631789 C 34.586138,7.8242367 33.613027,5.551768 31.737135,3.98801 29.861204,2.424311 27.504361,1.6368221 24.6666,1.6255411 21.263509,1.6911967 18.664795,2.7636816 16.870449,4.842999 15.076095,6.9223737 14.254857,9.6148366 14.406732,12.920396 z"
       id="path2992"
       style="font-size:45px;text-align:center;text-anchor:middle;font-family:HelveticaNeueLT Pro 55 Roman;-inkscape-font-specification:HelveticaNeueLT Pro 55 Roman" />
    <path
       d="m 58.625314,2.1655341 -15.749798,0 -2.969961,16.5597869 3.284957,0.179998 c 0.742484,-0.913098 1.608722,-1.640588 2.598717,-2.182473 0.989978,-0.541851 2.103713,-0.819347 3.341207,-0.832489 2.189958,0.04033 3.929934,0.724697 5.219933,2.0531 1.289965,1.328435 1.949956,3.059035 1.979974,5.191807 -0.05345,2.519976 -0.722821,4.409949 -2.008099,5.669927 -1.285312,1.259987 -2.865915,1.889979 -4.741814,1.889976 -1.938736,-0.03469 -3.506214,-0.584052 -4.70244,-1.648104 -1.196241,-1.064044 -1.863731,-2.43465 -2.002474,-4.111822 l -3.82495,0 c 0.136871,2.900593 1.156857,5.143062 3.05996,6.727413 1.903094,1.584354 4.273061,2.386844 7.109909,2.407469 3.713374,-0.104999 6.50146,-1.199984 8.364267,-3.284957 1.862766,-2.084969 2.794628,-4.529935 2.795589,-7.334906 -0.07502,-3.664628 -1.083758,-6.403965 -3.026212,-8.21802 -1.942493,-1.814019 -4.368709,-2.719631 -7.278655,-2.716839 -1.10531,-0.0028 -2.19092,0.18283 -3.256834,0.556867 -1.065932,0.374078 -1.960295,0.953445 -2.68309,1.738103 l -0.09,-0.09 1.709978,-9.1798813 12.869835,0 z"
       id="path2994"
       style="font-size:45px;text-align:center;text-anchor:middle;font-family:HelveticaNeueLT Pro 55 Roman;-inkscape-font-specification:HelveticaNeueLT Pro 55 Roman" />
    <path
       d="M 84.979125,9.7704362 C 84.716605,7.1473721 83.812867,5.1374 82.267909,3.7405138 80.722911,2.3436872 78.62669,1.638697 75.979241,1.6255411 c -3.006639,0.048642 -5.368273,0.8764088 -7.08491,2.4833017 -1.716649,1.6069518 -2.928299,3.7013671 -3.634954,6.2832522 -0.70666,2.581932 -1.048321,5.359671 -1.024985,8.333226 -0.04028,2.286095 0.205272,4.598841 0.736656,6.938244 0.531379,2.33942 1.590253,4.308837 3.176626,5.908257 1.586362,1.599424 3.941885,2.432191 7.066577,2.498301 2.66745,-0.04556 4.782421,-0.624436 6.344918,-1.736644 1.562459,-1.112206 2.677443,-2.48441 3.344956,-4.116614 0.667468,-1.632194 0.992464,-3.251061 0.974988,-4.856604 -0.0244,-3.01026 -0.886886,-5.472101 -2.587467,-7.38553 -1.700622,-1.913394 -4.093089,-2.901505 -7.177407,-2.964337 -1.735303,-0.0084 -3.270907,0.323454 -4.606817,0.995613 -1.335927,0.672198 -2.455287,1.735308 -3.35808,3.189334 l -0.09,-0.09 c 0.01805,-1.693572 0.226935,-3.466325 0.626658,-5.318266 0.39971,-1.8518964 1.151922,-3.431319 2.256637,-4.7382719 1.104698,-1.3069 2.723565,-1.9896682 4.856605,-2.0483065 1.539341,0.018779 2.769324,0.4537729 3.689953,1.3049832 0.920595,0.8512647 1.475587,2.0062487 1.664978,3.4649554 z m -9.584877,6.6149148 c 2.177769,0.05439 3.795872,0.766881 4.854313,2.137472 1.058405,1.370621 1.585273,3.073098 1.580605,5.107435 -0.0094,1.948108 -0.564386,3.598085 -1.664979,4.949936 -1.100628,1.351861 -2.690606,2.056851 -4.769939,2.114973 -2.106546,-0.04875 -3.732149,-0.738737 -4.876813,-2.069974 -1.14468,-1.331226 -1.724047,-3.011203 -1.738101,-5.039935 0.0084,-2.052149 0.576548,-3.752751 1.704353,-5.10181 1.127789,-1.349029 2.764641,-2.048394 4.910561,-2.098097 z"
       id="path2996"
       style="font-size:45px;text-align:center;text-anchor:middle;font-family:HelveticaNeueLT Pro 55 Roman;-inkscape-font-specification:HelveticaNeueLT Pro 55 Roman" />
  </g>
</svg>
