<?xml version="1.0" encoding="UTF-8" standalone="no"?>
<!-- Created with Inkscape (http://www.inkscape.org/) -->

<svg
   xmlns:dc="http://purl.org/dc/elements/1.1/"
   xmlns:cc="http://creativecommons.org/ns#"
   xmlns:rdf="http://www.w3.org/1999/02/22-rdf-syntax-ns#"
   xmlns:svg="http://www.w3.org/2000/svg"
   xmlns="http://www.w3.org/2000/svg"
   version="1.2"
   width="100"
   height="100"
   id="svg2">
  <metadata
     id="metadata17">
    <rdf:RDF>
      <cc:Work
         rdf:about="">
        <dc:format>image/svg+xml</dc:format>
        <dc:type
           rdf:resource="http://purl.org/dc/dcmitype/StillImage" />
        <dc:title></dc:title>
      </cc:Work>
    </rdf:RDF>
  </metadata>
  <defs
     id="defs15" />
  <g
     id="g4">
    <title
       id="title6">Layer 1</title>
  </g>
  <g
     id="g8">
    <title
       id="title10">Layer 2</title>
    <path
       d="m 6,0 88,0 c 3.324,0 6,2.676 6,6 l 0,88 c 0,3.324 -2.676,6 -6,6 L 6,100 C 2.676,100 0,97.324 0,94 L 0,6 C 0,2.676 2.676,0 6,0 z"
       id="svg_10"
       style="fill:#f67c5f" />
  </g>
  <g
     transform="translate(1.1984861,24.568964)"
     id="flowRoot2994"
     style="font-size:40px;font-style:normal;font-weight:normal;line-height:125%;letter-spacing:0px;word-spacing:0px;fill:#FFFFFF;fill-opacity:1;stroke:none;font-family:Sans">
    <path
       d="m 31.374611,22.666506 c 0.879976,-0.10998 1.814963,-0.164979 2.804964,-0.164998 2.367244,0.0057 4.328883,0.640531 5.884924,1.904352 1.556,1.263854 2.362655,3.122369 2.419969,5.575552 -0.06763,2.359248 -0.908656,4.19943 -2.523092,5.520553 -1.614477,1.321133 -3.596741,1.992583 -5.946799,2.01435 -2.669769,-0.04125 -4.700158,-0.838735 -6.091171,-2.39247 -1.391031,-1.553723 -2.128937,-3.616195 -2.213722,-6.18742 l -4.67494,0 c -0.02635,4.066518 1.126337,7.194599 3.45808,9.384253 2.331734,2.18966 5.505648,3.29652 9.521753,3.320584 3.759412,-0.01031 6.91041,-1.020924 9.453003,-3.031837 2.542545,-2.010908 3.864819,-4.960242 3.966824,-8.84801 0.0057,-2.374123 -0.569499,-4.404512 -1.725603,-6.091172 -1.156156,-1.686625 -2.92759,-2.809526 -5.314306,-3.368706 l 0,-0.109999 c 1.547977,-0.708095 2.824418,-1.739331 3.829325,-3.093711 1.004857,-1.354332 1.525058,-2.908061 1.560606,-4.661189 C 45.712213,8.8491122 44.577854,6.2068571 42.381345,4.5098645 40.18479,2.8129449 37.359204,1.971915 33.904579,1.9867724 30.003055,2.0475399 27.053721,3.2185655 25.056567,5.4998526 23.059402,7.7812106 21.993792,10.80846 21.859734,14.58161 l 4.67494,0 c -0.0092,-2.350045 0.58665,-4.33231 1.787476,-5.9467986 1.200807,-1.6144243 3.061615,-2.4554542 5.582429,-2.5230921 2.021208,0.00347 3.671185,0.5328405 4.949936,1.588105 1.278712,1.055331 1.938703,2.6159347 1.979974,4.6818147 -0.06189,2.094582 -0.804385,3.680393 -2.227472,4.757438 -1.423125,1.077091 -3.155601,1.617918 -5.197432,1.622479 l -0.989987,0 c -0.320842,0.0092 -0.66917,-0.0091 -1.044987,-0.055 z"
       id="path2993"
       style="font-size:55px;text-align:center;text-anchor:middle;font-family:HelveticaNeueLT Pro 55 Roman;-inkscape-font-specification:HelveticaNeueLT Pro 55 Roman" />
    <path
       d="m 57.094909,15.791595 c -0.09626,-2.448587 0.467486,-4.646265 1.691228,-6.5930409 1.223724,-1.9467123 3.189947,-2.9756563 5.898674,-3.0868348 2.118602,0.02868 3.890035,0.6726298 5.314305,1.9318505 1.424231,1.2592867 2.164429,2.9619712 2.220598,5.1080592 -0.0023,2.619366 -0.836469,4.764337 -2.502469,6.434917 -1.666039,1.670623 -4.150171,3.485598 -7.452403,5.44493 -2.817577,1.534266 -5.239835,3.456948 -7.266781,5.768051 -2.026956,2.311123 -3.252981,5.705034 -3.678078,10.181743 l 25.464672,0 0,-4.124947 -20.019742,0 c 0.538527,-2.339756 1.867675,-4.287646 3.987448,-5.843676 2.119751,-1.55601 4.438886,-3.036405 6.957411,-4.441191 2.511614,-1.474653 4.69325,-3.227754 6.544916,-5.259308 1.851616,-2.031515 2.82327,-4.733352 2.914962,-8.10552 -0.08596,-3.643672 -1.275321,-6.4211337 -3.568078,-8.3323936 -2.292805,-1.9111876 -5.17339,-2.873674 -8.641765,-2.887462 -4.159333,0.080246 -7.33554,1.3910607 -9.528629,3.9324486 -2.193099,2.541458 -3.196835,5.832246 -3.011209,9.872374 z"
       id="path2995"
       style="font-size:55px;text-align:center;text-anchor:middle;font-family:HelveticaNeueLT Pro 55 Roman;-inkscape-font-specification:HelveticaNeueLT Pro 55 Roman" />
  </g>
</svg>
