<?xml version="1.0" encoding="UTF-8" standalone="no"?>
<!-- Created with Inkscape (http://www.inkscape.org/) -->

<svg
   xmlns:dc="http://purl.org/dc/elements/1.1/"
   xmlns:cc="http://creativecommons.org/ns#"
   xmlns:rdf="http://www.w3.org/1999/02/22-rdf-syntax-ns#"
   xmlns:svg="http://www.w3.org/2000/svg"
   xmlns="http://www.w3.org/2000/svg"
   version="1.2"
   width="100"
   height="100"
   id="svg2">
  <metadata
     id="metadata17">
    <rdf:RDF>
      <cc:Work
         rdf:about="">
        <dc:format>image/svg+xml</dc:format>
        <dc:type
           rdf:resource="http://purl.org/dc/dcmitype/StillImage" />
        <dc:title></dc:title>
      </cc:Work>
    </rdf:RDF>
  </metadata>
  <defs
     id="defs15" />
  <g
     id="g4">
    <title
       id="title6">Layer 1</title>
  </g>
  <g
     id="g8">
    <title
       id="title10">Layer 2</title>
    <path
       d="m 6,0 88,0 c 3.324,0 6,2.676 6,6 l 0,88 c 0,3.324 -2.676,6 -6,6 L 6,100 C 2.676,100 0,97.324 0,94 L 0,6 C 0,2.676 2.676,0 6,0 z"
       id="svg_10"
       style="fill:#edc850" />
  </g>
  <g
     transform="translate(1.4981076,29.812341)"
     id="flowRoot2994"
     style="font-size:40px;font-style:normal;font-weight:normal;line-height:125%;letter-spacing:0px;word-spacing:0px;fill:#FFFFFF;fill-opacity:1;stroke:none;font-family:Sans">
    <path
       d="m 33.576486,2.1655341 -15.749798,0 -2.969961,16.5597869 3.284957,0.179998 c 0.742484,-0.913098 1.608722,-1.640588 2.598717,-2.182473 0.989978,-0.541851 2.103713,-0.819347 3.341207,-0.832489 2.189958,0.04033 3.929934,0.724697 5.219933,2.0531 1.289965,1.328435 1.949956,3.059035 1.979974,5.191807 -0.05345,2.519976 -0.722821,4.409949 -2.008099,5.669927 -1.285312,1.259987 -2.865915,1.889979 -4.741814,1.889976 -1.938736,-0.03469 -3.506214,-0.584052 -4.70244,-1.648104 -1.196241,-1.064044 -1.863731,-2.43465 -2.002474,-4.111822 l -3.82495,0 c 0.136871,2.900593 1.156857,5.143062 3.05996,6.727413 1.903094,1.584354 4.273061,2.386844 7.109909,2.407469 3.713374,-0.104999 6.50146,-1.199984 8.364267,-3.284957 1.862766,-2.084969 2.794628,-4.529935 2.795589,-7.334906 -0.07502,-3.664628 -1.083758,-6.403965 -3.026212,-8.21802 -1.942493,-1.814019 -4.368709,-2.719631 -7.278655,-2.716839 -1.10531,-0.0028 -2.19092,0.18283 -3.256834,0.556867 -1.065932,0.374078 -1.960295,0.953445 -2.68309,1.738103 l -0.09,-0.09 1.709978,-9.1798813 12.869835,0 z"
       id="path2993"
       style="font-size:45px;text-align:center;text-anchor:middle;font-family:HelveticaNeueLT Pro 55 Roman;-inkscape-font-specification:HelveticaNeueLT Pro 55 Roman" />
    <path
       d="m 53.49538,1.6255411 -2.924963,0 C 50.08666,4.0011656 48.995425,5.6061433 47.296709,6.4404791 45.597973,7.274869 43.62925,7.6648636 41.390536,7.610464 l 0,3.059961 8.279893,0 0,22.859705 3.824951,0 z"
       id="path2995"
       style="font-size:45px;text-align:center;text-anchor:middle;font-family:HelveticaNeueLT Pro 55 Roman;-inkscape-font-specification:HelveticaNeueLT Pro 55 Roman" />
    <path
       d="m 68.329339,12.920396 c -0.07875,-2.003389 0.382489,-3.8014896 1.383733,-5.3943062 1.001228,-1.5927647 2.609956,-2.4346279 4.826187,-2.5255922 1.733402,0.023466 3.182756,0.5503335 4.348068,1.580605 1.16528,1.0303254 1.770897,2.423431 1.816853,4.1793204 -0.0019,2.143119 -0.684384,3.898094 -2.047474,5.264933 -1.363123,1.366873 -3.395595,2.851852 -6.097421,4.454942 -2.305291,1.255309 -4.287138,2.828412 -5.945548,4.719315 -1.658419,1.890919 -2.66153,4.667755 -3.009337,8.330517 l 20.834732,0 0,-3.374956 -16.379789,0 c 0.440613,-1.914347 1.528098,-3.508075 3.262457,-4.78119 1.734342,-1.273099 3.631816,-2.484332 5.692428,-3.633702 2.054957,-1.206534 3.839932,-2.640889 5.354931,-4.30307 1.514959,-1.662148 2.309948,-3.872743 2.384969,-6.631789 C 84.683794,7.8242367 83.710683,5.551768 81.834791,3.98801 79.95886,2.424311 77.602018,1.6368221 74.764256,1.6255411 c -3.403091,0.065656 -6.001805,1.1381405 -7.79615,3.2174579 -1.794355,2.0793747 -2.615593,4.7718376 -2.463717,8.077397 z"
       id="path2997"
       style="font-size:45px;text-align:center;text-anchor:middle;font-family:HelveticaNeueLT Pro 55 Roman;-inkscape-font-specification:HelveticaNeueLT Pro 55 Roman" />
  </g>
</svg>
