<?xml version="1.0" encoding="UTF-8" standalone="no"?>
<!-- Created with Inkscape (http://www.inkscape.org/) -->

<svg
   xmlns:dc="http://purl.org/dc/elements/1.1/"
   xmlns:cc="http://creativecommons.org/ns#"
   xmlns:rdf="http://www.w3.org/1999/02/22-rdf-syntax-ns#"
   xmlns:svg="http://www.w3.org/2000/svg"
   xmlns="http://www.w3.org/2000/svg"
   version="1.2"
   width="100"
   height="100"
   id="svg2">
  <metadata
     id="metadata17">
    <rdf:RDF>
      <cc:Work
         rdf:about="">
        <dc:format>image/svg+xml</dc:format>
        <dc:type
           rdf:resource="http://purl.org/dc/dcmitype/StillImage" />
        <dc:title></dc:title>
      </cc:Work>
    </rdf:RDF>
  </metadata>
  <defs
     id="defs15" />
  <g
     id="g4">
    <title
       id="title6">Layer 1</title>
  </g>
  <g
     id="g8">
    <title
       id="title10">Layer 2</title>
    <path
       d="m 6,0 88,0 c 3.324,0 6,2.676 6,6 l 0,88 c 0,3.324 -2.676,6 -6,6 L 6,100 C 2.676,100 0,97.324 0,94 L 0,6 C 0,2.676 2.676,0 6,0 z"
       id="svg_10"
       style="fill:#f65e3b" />
  </g>
  <g
     transform="translate(1.1984861,24.568964)"
     id="flowRoot2994"
     style="font-size:40px;font-style:normal;font-weight:normal;line-height:125%;letter-spacing:0px;word-spacing:0px;fill:#FFFFFF;fill-opacity:1;stroke:none;font-family:Sans">
    <path
       d="M 46.829412,11.941644 C 46.508554,8.735677 45.403986,6.2790445 43.515703,4.5717391 41.627373,2.8645066 39.065325,2.0028519 35.829554,1.9867724 32.154773,2.0462243 29.268331,3.0579388 27.17022,5.021919 c -2.098127,1.9640521 -3.579033,4.5238931 -4.442721,7.679531 -0.863696,3.155694 -1.281282,6.550708 -1.25276,10.185053 -0.04923,2.794116 0.250888,5.620806 0.900357,8.480077 0.649463,2.85929 1.943643,5.266355 3.882543,7.221202 1.938886,1.954852 4.817859,2.972678 8.636927,3.05348 3.260217,-0.05568 5.845181,-0.7632 7.7549,-2.122566 1.909672,-1.359363 3.272431,-3.0365 4.08828,-5.031417 0.815794,-1.994904 1.213011,-3.973518 1.191652,-5.935849 -0.02982,-3.679207 -1.083972,-6.688123 -3.16246,-9.026759 -2.078538,-2.338592 -5.002664,-3.546284 -8.772386,-3.623078 -2.120926,-0.01029 -3.997775,0.395333 -5.630554,1.21686 -1.632801,0.821575 -3.000906,2.120932 -4.104321,3.898074 l -0.109998,-0.109998 c 0.02206,-2.069921 0.277365,-4.236619 0.765915,-6.500102 0.488535,-2.26343 1.407905,-4.193835 2.758112,-5.791222 1.350186,-1.5973223 3.328801,-2.4318167 5.935851,-2.5034857 1.881416,0.022952 3.384729,0.5546113 4.509942,1.5949795 1.125171,1.0404346 1.803495,2.4520822 2.034973,4.2349452 z M 35.114563,20.02654 c 2.661718,0.06648 4.639398,0.937299 5.933048,2.612466 1.293607,1.675203 1.937557,3.756008 1.931851,6.24242 -0.01148,2.381021 -0.689805,4.39766 -2.034974,6.049922 -1.345212,1.652275 -3.288518,2.51393 -5.829925,2.584967 -2.574667,-0.05958 -4.561515,-0.9029 -5.960549,-2.529967 -1.399054,-1.627055 -2.107169,-3.68036 -2.124347,-6.159921 0.0103,-2.508183 0.70467,-4.586696 2.083099,-6.235546 1.378409,-1.648813 3.379006,-2.503592 6.001797,-2.564341 z"
       id="path3761"
       style="font-size:55px;text-align:center;text-anchor:middle;font-family:HelveticaNeueLT Pro 55 Roman;-inkscape-font-specification:HelveticaNeueLT Pro 55 Roman" />
    <path
       d="m 55.554928,27.726441 12.979833,-19.0847543 0.109999,0 0,19.0847543 z m 17.489775,-25.7396686 -3.739952,0 -17.764771,25.3546736 0,4.509942 17.10478,0 0,9.129882 4.399943,0 0,-9.129882 5.279932,0 0,-4.124947 -5.279932,0 z"
       id="path3763"
       style="font-size:55px;text-align:center;text-anchor:middle;font-family:HelveticaNeueLT Pro 55 Roman;-inkscape-font-specification:HelveticaNeueLT Pro 55 Roman" />
  </g>
</svg>
