<?xml version="1.0" encoding="UTF-8" standalone="no"?>
<!-- Created with Inkscape (http://www.inkscape.org/) -->

<svg
   xmlns:dc="http://purl.org/dc/elements/1.1/"
   xmlns:cc="http://creativecommons.org/ns#"
   xmlns:rdf="http://www.w3.org/1999/02/22-rdf-syntax-ns#"
   xmlns:svg="http://www.w3.org/2000/svg"
   xmlns="http://www.w3.org/2000/svg"
   version="1.2"
   width="100"
   height="100"
   id="svg2">
  <metadata
     id="metadata17">
    <rdf:RDF>
      <cc:Work
         rdf:about="">
        <dc:format>image/svg+xml</dc:format>
        <dc:type
           rdf:resource="http://purl.org/dc/dcmitype/StillImage" />
        <dc:title></dc:title>
      </cc:Work>
    </rdf:RDF>
  </metadata>
  <defs
     id="defs15" />
  <g
     id="g4">
    <title
       id="title6">Layer 1</title>
  </g>
  <g
     id="g8">
    <title
       id="title10">Layer 2</title>
    <path
       d="m 6,0 88,0 c 3.324,0 6,2.676 6,6 l 0,88 c 0,3.324 -2.676,6 -6,6 L 6,100 C 2.676,100 0,97.324 0,94 L 0,6 C 0,2.676 2.676,0 6,0 z"
       id="svg_10"
       style="fill:#f2b179" />
  </g>
  <g
     transform="translate(1.1984861,24.568964)"
     id="flowRoot2994"
     style="font-size:40px;font-style:normal;font-weight:normal;line-height:125%;letter-spacing:0px;word-spacing:0px;fill:#FFFFFF;fill-opacity:1;stroke:none;font-family:Sans">
    <path
       d="m 43.217273,12.106642 c 0.05041,-1.958174 0.719565,-3.4454449 2.007473,-4.4618179 1.287888,-1.0163062 2.892033,-1.5273406 4.812439,-1.5331048 1.932978,0.00233 3.498164,0.5064858 4.695564,1.5124797 1.197359,1.0060607 1.813809,2.500207 1.849352,4.482443 -0.0344,1.993752 -0.639387,3.53373 -1.814977,4.619941 -1.175629,1.086259 -2.715608,1.636251 -4.61994,1.649978 -1.949051,0.0035 -3.578404,-0.512159 -4.888063,-1.546856 -1.30968,-1.034649 -1.990295,-2.609002 -2.041848,-4.723063 z m -4.949936,-0.164998 c 0.02062,1.79438 0.515614,3.416857 1.484981,4.867437 0.969356,1.450628 2.289338,2.523114 3.959949,3.217459 -2.209145,0.790635 -3.895788,2.028118 -5.059935,3.712452 -1.164155,1.684368 -1.750814,3.69184 -1.759978,6.022423 0.08479,3.959956 1.358937,6.929915 3.82245,8.909885 2.463502,1.979975 5.607625,2.969961 9.43238,2.969962 3.690661,-0.02406 6.74541,-1.062174 9.164256,-3.114335 2.418796,-2.052157 3.67232,-4.973991 3.760577,-8.765512 0.0034,-2.430268 -0.567209,-4.472114 -1.711854,-6.125547 -1.144698,-1.653397 -2.884049,-2.856505 -5.218056,-3.609328 1.644226,-0.766532 2.948166,-1.859642 3.911824,-3.279334 0.963607,-1.419643 1.456309,-3.021496 1.478106,-4.805562 C 61.572114,9.3372298 60.666918,7.0524694 58.816447,5.0873563 56.965927,3.1223149 53.929511,2.088788 49.70719,1.9867724 46.607738,2.002853 43.951733,2.8645077 41.739167,4.5717391 39.526586,6.2790434 38.369311,8.735676 38.267337,11.941644 z m 3.574954,18.039768 c 0.05499,-2.308812 0.852481,-4.126078 2.392468,-5.451805 1.539969,-1.325694 3.492442,-2.001726 5.857426,-2.028099 2.259537,0.04814 4.147844,0.763134 5.664927,2.144973 1.51704,1.381871 2.305362,3.141847 2.364969,5.279932 -0.04013,2.217167 -0.784909,4.025267 -2.234346,5.424304 -1.449481,1.399048 -3.362996,2.120913 -5.740551,2.165598 -2.463523,-0.02177 -4.452662,-0.693217 -5.967424,-2.01435 -1.514781,-1.321121 -2.293937,-3.161304 -2.337469,-5.520553 z"
       id="path2993"
       style="font-size:55px;text-align:center;text-anchor:middle;font-family:HelveticaNeueLT Pro 55 Roman;-inkscape-font-specification:HelveticaNeueLT Pro 55 Roman" />
  </g>
</svg>
